<svg width="190" height="42" viewBox="0 0 190 42" fill="none" xmlns="http://www.w3.org/2000/svg">
<path d="M48.6718 4.1118C49.3603 3.41209 50.2941 3.06616 51.4732 3.06616C52.7156 3.06616 53.689 3.41209 54.3775 4.1118C55.066 4.81151 55.4142 5.66846 55.4142 6.70624C55.4142 7.74401 55.066 8.60097 54.3775 9.28495C53.689 9.96894 52.7315 10.3149 51.5207 10.3149C50.3099 10.3149 49.3603 9.96894 48.6639 9.28495C47.9754 8.60097 47.6272 7.73615 47.6272 6.70624C47.6272 5.67632 47.9754 4.81151 48.6639 4.1118H48.6718ZM55.1609 38.6729V12.8621H47.8963V38.6729H55.1609Z" fill="white"/>
<path d="M68.1867 15.7239C70.0385 13.837 72.2938 12.8857 74.9607 12.8857C75.8075 12.8857 76.6146 12.9565 77.3743 13.0901L76.2348 20.2052C75.388 19.4504 74.1773 19.0416 72.6025 18.9944C70.8377 19.1124 69.3658 20.386 68.1946 22.8075V38.665H60.9299V13.6405L68.1946 12.87V15.7317L68.1867 15.7239Z" fill="white"/>
<path d="M84.7182 35.4495C82.1225 33.3032 80.8247 30.5122 80.8247 27.0687V24.49C80.8247 21.0543 82.1225 18.2633 84.7182 16.1091C87.3138 13.9628 90.3527 12.8857 93.8267 12.8857C97.9813 12.8857 101.432 14.3481 104.178 17.2648L98.9864 21.1329C97.4274 19.5841 95.7022 18.8136 93.7951 18.8136C92.062 18.8136 90.5505 19.4976 89.2527 20.8735C87.9548 22.2493 87.3059 23.8846 87.3059 25.7715C87.3059 27.6583 87.9153 29.2936 89.1261 30.6694C90.3368 32.0453 91.8958 32.7293 93.7951 32.7293C95.6943 32.7293 97.4274 31.9588 98.9864 30.41L104.178 34.2781C101.408 37.2027 97.9497 38.6572 93.7951 38.6572C90.3368 38.6572 87.3059 37.5801 84.7103 35.4338L84.7182 35.4495Z" fill="white"/>
<path d="M109.369 38.6729V0H116.634V38.6729H109.369Z" fill="white"/>
<path d="M126.803 35.4495C124.207 33.3032 122.909 30.5122 122.909 27.0687V24.49C122.909 21.0543 124.207 18.2633 126.803 16.1091C129.398 13.9628 132.437 12.8857 135.911 12.8857C140.066 12.8857 143.516 14.3481 146.262 17.2648L141.071 21.1329C139.512 19.5841 137.787 18.8136 135.88 18.8136C134.146 18.8136 132.635 19.4976 131.337 20.8735C130.039 22.2493 129.39 23.8846 129.39 25.7715C129.39 27.6583 130 29.2936 131.211 30.6694C132.421 32.0453 133.98 32.7293 135.88 32.7293C137.779 32.7293 139.512 31.9588 141.071 30.41L146.262 34.2781C143.492 37.2027 140.034 38.6572 135.88 38.6572C132.421 38.6572 129.39 37.5801 126.795 35.4338L126.803 35.4495Z" fill="white"/>
<path d="M153.74 35.1507C151.216 32.6348 149.95 29.5058 149.95 25.7792C149.95 22.0527 151.216 18.9079 153.74 16.3921C156.265 13.8841 159.414 12.6262 163.189 12.6262C166.964 12.6262 170.106 13.8841 172.638 16.3921C175.162 18.9 176.429 22.0291 176.429 25.7792C176.429 29.5294 175.162 32.6506 172.638 35.1664C170.114 37.6743 166.964 38.9323 163.189 38.9323C159.414 38.9323 156.273 37.6744 153.74 35.1585V35.1507ZM163.157 32.6899C165.128 32.6899 166.727 32.0295 167.961 30.7165C169.196 29.4036 169.805 27.7683 169.805 25.8028C169.805 23.8373 169.188 22.2021 167.961 20.8813C166.734 19.5604 165.128 18.9 163.134 18.9C161.14 18.9 159.588 19.5604 158.362 20.8813C157.135 22.2021 156.518 23.8452 156.518 25.8028C156.518 27.7604 157.135 29.3957 158.362 30.7165C159.588 32.0295 161.187 32.6899 163.165 32.6899H163.157Z" fill="white"/>
<path d="M182.261 32.9651C182.949 32.2654 183.883 31.9194 185.062 31.9194C186.305 31.9194 187.278 32.2654 187.967 32.9651C188.655 33.6648 189.003 34.5217 189.003 35.5595C189.003 36.5973 188.655 37.4542 187.967 38.1382C187.278 38.8222 186.321 39.1681 185.11 39.1681C183.899 39.1681 182.949 38.8222 182.253 38.1382C181.565 37.4542 181.216 36.5894 181.216 35.5595C181.216 34.5296 181.565 33.6648 182.253 32.9651H182.261Z" fill="white"/>
<path d="M36.1447 2.96397L36.8173 12.5948C36.8411 13.4203 36.6432 13.9864 36.2476 14.3638C35.9389 14.8198 35.4087 15.1028 34.5857 15.2207L24.9153 16.172L24.3693 12.3197L27.3131 11.6907C22.288 7.82264 15.0154 8.41229 10.7104 13.1923C6.21552 18.1925 6.65077 25.8894 11.6759 30.3628C16.7089 34.8284 24.4563 34.396 28.9591 29.4037C30.985 27.1473 32.0929 24.2384 32.0692 21.2194L39.6741 21.1644C39.7058 26.0702 37.9173 30.7795 34.6253 34.4432C27.3289 42.5488 14.7622 43.2485 6.60329 35.9998C-1.5477 28.7433 -2.25201 16.2585 5.04431 8.15285C12.0557 0.353805 23.9419 -0.566041 32.1008 5.81785L32.2195 3.07404L36.1368 2.96397H36.1447Z" fill="#98D4BE"/>
</svg>
